<svg width="210" height="41" viewBox="0 0 210 41" fill="none" xmlns="http://www.w3.org/2000/svg">
<circle cx="20.4092" cy="20.4092" r="20.4092" fill="#20B15A"/>
<path d="M21.4915 29.1857V21.0995H24.2195L24.625 17.9335H21.4915V15.9169C21.4915 15.0033 21.7461 14.3778 23.0573 14.3778H24.7187V11.5552C23.9103 11.4685 23.0978 11.4267 22.2848 11.4299C19.8735 11.4299 18.218 12.9019 18.218 15.6042V17.9276H15.5078V21.0936H18.2239V29.1857H21.4915Z" fill="#F9F9F9"/>
<circle cx="76.5344" cy="20.4092" r="20.4092" fill="#20B15A"/>
<path d="M86.4101 15.5396C85.7768 15.8203 85.0964 16.0099 84.3812 16.0956C85.1192 15.654 85.6713 14.959 85.9346 14.1402C85.2412 14.5521 84.4823 14.842 83.6909 14.9973C83.1588 14.4291 82.4539 14.0525 81.6857 13.9259C80.9176 13.7994 80.1291 13.93 79.4428 14.2974C78.7564 14.6649 78.2106 15.2487 77.8901 15.9581C77.5695 16.6676 77.4922 17.463 77.67 18.2209C76.265 18.1504 74.8906 17.7852 73.6359 17.1491C72.3812 16.513 71.2742 15.6202 70.3869 14.5286C70.0835 15.0519 69.9091 15.6587 69.9091 16.305C69.9087 16.8867 70.052 17.4596 70.3262 17.9727C70.6003 18.4858 70.9969 18.9233 71.4807 19.2464C70.9196 19.2286 70.3709 19.0769 69.8803 18.8042V18.8497C69.8802 19.6657 70.1624 20.4565 70.6791 21.088C71.1957 21.7196 71.915 22.1529 72.7147 22.3145C72.1943 22.4554 71.6486 22.4761 71.1189 22.3752C71.3445 23.0773 71.7841 23.6912 72.376 24.1311C72.9679 24.5709 73.6825 24.8147 74.4198 24.8282C73.1682 25.8107 71.6224 26.3437 70.0312 26.3414C69.7493 26.3414 69.4677 26.325 69.1877 26.2921C70.8029 27.3306 72.6831 27.8817 74.6034 27.8796C81.1037 27.8796 84.6573 22.4958 84.6573 17.8265C84.6573 17.6748 84.6535 17.5216 84.6466 17.3699C85.3378 16.87 85.9345 16.251 86.4086 15.5419L86.4101 15.5396Z" fill="#F9F9F9"/>
<circle cx="132.66" cy="20.4092" r="20.4092" fill="#20B15A"/>
<path fill-rule="evenodd" clip-rule="evenodd" d="M140.439 26.5325H137.304V21.6273C137.304 20.4569 137.284 18.9528 135.675 18.9528C134.044 18.9528 133.795 20.2274 133.795 21.5428V26.5325H130.663V16.4443H133.668V17.8239H133.712C134.129 17.031 135.153 16.1944 136.678 16.1944C139.852 16.1944 140.438 18.283 140.438 20.9998L140.439 26.5325ZM127.128 15.067C126.889 15.0672 126.653 15.0203 126.432 14.929C126.211 14.8376 126.01 14.7036 125.841 14.5347C125.672 14.3657 125.538 14.1651 125.447 13.9443C125.356 13.7235 125.309 13.4869 125.309 13.248C125.309 12.8884 125.416 12.5369 125.615 12.2379C125.815 11.939 126.099 11.7059 126.431 11.5682C126.763 11.4306 127.129 11.3945 127.482 11.4645C127.834 11.5346 128.158 11.7076 128.413 11.9617C128.667 12.2159 128.84 12.5397 128.911 12.8923C128.981 13.2449 128.945 13.6105 128.808 13.9428C128.67 14.275 128.437 14.5591 128.139 14.7591C127.84 14.9591 127.488 15.066 127.129 15.0663L127.128 15.067ZM128.696 26.5325H125.558V16.4443H128.696V26.5325Z" fill="#F9F9F9"/>
<rect x="168.376" width="41.0003" height="41" rx="20.5" fill="#20B15A"/>
<path d="M188.874 17.9989C187.497 17.9989 186.373 19.1228 186.373 20.5C186.373 21.8772 187.497 23.0011 188.874 23.0011C190.251 23.0011 191.375 21.8772 191.375 20.5C191.375 19.1228 190.251 17.9989 188.874 17.9989ZM196.375 20.5C196.375 19.4643 196.385 18.438 196.326 17.4042C196.268 16.2033 195.994 15.1376 195.116 14.2595C194.236 13.3796 193.172 13.1075 191.972 13.0493C190.936 12.9912 189.91 13.0006 188.876 13.0006C187.84 13.0006 186.814 12.9912 185.78 13.0493C184.579 13.1075 183.513 13.3814 182.635 14.2595C181.755 15.1395 181.483 16.2033 181.425 17.4042C181.367 18.4399 181.376 19.4662 181.376 20.5C181.376 21.5338 181.367 22.562 181.425 23.5958C181.483 24.7967 181.757 25.8624 182.635 26.7405C183.515 27.6204 184.579 27.8925 185.78 27.9507C186.816 28.0088 187.842 27.9994 188.876 27.9994C189.911 27.9994 190.938 28.0088 191.972 27.9507C193.172 27.8925 194.238 27.6186 195.116 26.7405C195.996 25.8605 196.268 24.7967 196.326 23.5958C196.386 22.562 196.375 21.5357 196.375 20.5ZM188.874 24.3482C186.744 24.3482 185.026 22.6296 185.026 20.5C185.026 18.3704 186.744 16.6518 188.874 16.6518C191.003 16.6518 192.722 18.3704 192.722 20.5C192.722 22.6296 191.003 24.3482 188.874 24.3482ZM192.88 17.3929C192.382 17.3929 191.981 16.9914 191.981 16.4942C191.981 15.997 192.382 15.5954 192.88 15.5954C193.377 15.5954 193.778 15.997 193.778 16.4942C193.779 16.6122 193.755 16.7292 193.71 16.8383C193.665 16.9474 193.599 17.0465 193.516 17.13C193.432 17.2135 193.333 17.2797 193.224 17.3248C193.115 17.3699 192.998 17.393 192.88 17.3929Z" fill="white"/>
</svg>
