<svg width="20" height="20" viewBox="0 0 20 20" fill="none" xmlns="http://www.w3.org/2000/svg">
<path d="M17.9549 6.61623C17.7205 6.38189 17.4026 6.25024 17.0712 6.25024C16.7397 6.25024 16.4218 6.38189 16.1874 6.61623L9.99994 12.8037L3.81244 6.61623C3.57669 6.38853 3.26093 6.26254 2.93319 6.26538C2.60544 6.26823 2.29193 6.39969 2.06017 6.63145C1.82841 6.86321 1.69695 7.17673 1.6941 7.50448C1.69125 7.83222 1.81724 8.14797 2.04494 8.38373L9.11619 15.455C9.3506 15.6893 9.66848 15.821 9.99994 15.821C10.3314 15.821 10.6493 15.6893 10.8837 15.455L17.9549 8.38373C18.1893 8.14932 18.3209 7.83143 18.3209 7.49998C18.3209 7.16852 18.1893 6.85064 17.9549 6.61623Z" fill="black"/>
</svg>
